<?xml version="1.0" encoding="UTF-8"?>
<svg id="Capa_2" data-name="Capa 2" xmlns="http://www.w3.org/2000/svg" viewBox="0 0 35.25 35.25">
  <defs>
    <style>
      .cls-1 {
        fill: #fff;
      }
    </style>
  </defs>
  <g id="Capa_1-2" data-name="Capa 1">
    <g>
      <path class="cls-1" d="m33.75,35.25c-.38,0-.77-.15-1.06-.44L.44,2.56C-.15,1.98-.15,1.02.44.44,1.03-.15,1.97-.15,2.56.44l32.25,32.25c.59.59.59,1.54,0,2.12-.29.29-.68.44-1.06.44Z"/>
      <path class="cls-1" d="m1.5,35.25c-.38,0-.77-.15-1.06-.44-.59-.59-.59-1.54,0-2.12L32.69.44c.59-.59,1.54-.59,2.12,0,.59.59.59,1.54,0,2.12L2.56,34.81c-.29.29-.68.44-1.06.44Z"/>
    </g>
  </g>
</svg>