<?xml version="1.0" encoding="UTF-8"?>
<svg id="Capa_2" data-name="Capa 2" xmlns="http://www.w3.org/2000/svg" viewBox="0 0 253.79 31">
  <defs>
    <style>
      .cls-1 {
        fill: #fff;
        stroke-width: 0px;
      }
    </style>
  </defs>
  <g id="Capa_1-2" data-name="Capa 1">
    <g>
      <path class="cls-1" d="m150.18,0h28.34c1.82,0,3.56,1.14,5.22,3.43.33.81.55,1.44.66,1.91.37,1.5.32,3.32-.13,5.46-1.44,2.29-4.5,3.43-9.2,3.43l.03.13c2.9,1.93,7.31,5.74,13.2,11.43,2.59,2.9,3.89,4.38,3.91,4.45.36.42.55.68.58.76h-.1c-13.58-8.83-23.54-14.42-29.89-16.77h-1.36c-.13,0-.19,2.29-.18,6.86-.03,1.33-.11,2.1-.22,2.29h-8.37l-.23-.13c.19-6.95.27-13.42.23-19.44l-.19-.76c-.21-.87-.97-1.84-2.27-2.92l-.03-.13Zm11.38,9.15h14.22c.02-1.78,0-2.8-.06-3.05l-.09-.38c-.14-.59-.44-.89-.9-.89h-11.1c-1.35,0-2.03.68-2.04,2.03l-.03,2.29Z"/>
      <path class="cls-1" d="m0,0h28.57c1.72,0,2.82,1.06,3.29,3.16l.03.13c.18.82.18,6.14,0,15.95-.84,2.7-3.95,4.05-9.33,4.05H.49l-.03-.13c1.76-1.94,2.43-3.88,1.99-5.82.09-3.59.09-8.23,0-13.92C2.2,2.26,1.4,1.2.06.25l-.06-.25Zm10.57,17.84h12.64c.65,0,.87-1.69.65-5.06.06-.27.06-2.76.02-7.47h-12.55c-.65,0-.87,1.14-.66,3.42-.06,0-.09,3.04-.1,9.11Z"/>
      <path class="cls-1" d="m32.24,0h7.26c2.16,0,3.46.89,3.88,2.66l.12.51c.13.55.13,4.39,0,11.52.02,1.39.07,2.28.16,2.66.33.59.69.89,1.07.89h9.17c1.23,0,1.68-1.81,1.37-5.44.15-5.21.12-8.25-.08-9.11l-.03-.13c-.36-1.5-1.16-2.59-2.41-3.29l-.06-.25h7.83c1.29,0,2.33.76,3.12,2.28l.27,1.14c.11,9.77.03,15.12-.25,16.07-.97,2.53-4.61,3.8-10.93,3.8h-7.35c-6.24,0-9.7-1.43-10.39-4.3-.07-.27-.08-5.25-.05-14.93l-.24-1.01c-.27-1.12-1.06-2.05-2.39-2.78l-.06-.25Z"/>
      <path class="cls-1" d="m64.88,0h27.36c2.74,0,4.86,1.35,6.34,4.04.2.57.35,1.03.44,1.39.4,1.64.43,7.58.08,17.82h-8.66l-.23-.13c.16-4.11.23-6.63.19-7.58h-14.21c-.13,0-.19,2.27-.18,6.82-.03.59-.09.88-.17.88h-8.66c.16-12.61.2-19.06.13-19.33l-.31-1.26c-.2-.82-.88-1.62-2.05-2.4l-.06-.25Zm11.2,10.74h14.31c.04-2.76.02-4.28-.04-4.55l-.09-.38c-.14-.59-.44-.88-.9-.88h-12.46c-.7,0-.94,1.14-.72,3.41-.05,0-.08.8-.09,2.4Z"/>
      <path class="cls-1" d="m99.14,0h8.46c1.09,0,1.95.89,2.59,2.66.24.97.25,5.82.05,14.55l.06.25c.09.38.52.68,1.29.89h10.11c2.9,0,5.52,1.56,7.85,4.68l.06.25h-28l-.23-.13c.19-6.92.27-13.37.23-19.36l-.19-.76c-.21-.86-.97-1.83-2.27-2.91l-.03-.13Z"/>
      <path class="cls-1" d="m119.01,0h29.66l.03.13c-1.53,3.21-4.17,4.81-7.92,4.81l-.38,18.35h-8.52l-.23-.13.32-18.22h-.2c-4.99,0-9.24-1.6-12.73-4.81l-.03-.13Z"/>
      <path class="cls-1" d="m189.03,0h26.06c1.88,0,3.08,1.05,3.59,3.16l.03.13c.2.82.2,6.13,0,15.92-.91,2.7-4.31,4.04-10.19,4.04h-12.74c-4.39,0-7.33-1.14-8.81-3.41l-.31-.88c-.1-10.99-.11-16.89-.05-17.69C187.03.42,187.83,0,189.03,0Zm6.4,17.82h13.81c.71,0,.95-1.68.71-5.05.06-.27.07-2.76.02-7.46h-13.71c-.71,0-.95,1.14-.72,3.41-.07,0-.1,3.03-.11,9.1Z"/>
      <path class="cls-1" d="m218.87,0h27.73c2.78,0,4.92,1.35,6.43,4.04.21.57.35,1.03.44,1.39.41,1.64.43,7.58.08,17.82h-8.78l-.23-.13c.23-4.89.33-10.61.28-17.18l-.03-.13c-.29-.59-.66-.88-1.11-.88h-12.63c-.71,0-.95,1.14-.73,3.41l-.25,14.91h-8.88c.16-12.61.2-19.06.14-19.33l-.31-1.26c-.2-.82-.9-1.62-2.08-2.4l-.06-.25Z"/>
    </g>
  </g>
</svg>