<?xml version="1.0" encoding="UTF-8"?>
<svg id="Capa_2" data-name="Capa 2" xmlns="http://www.w3.org/2000/svg" viewBox="0 0 303.19 43.51">
  <defs>
    <style>
      .cls-1 {
        fill: #fff;
      }

      .cls-2 {
        fill: #31b40a;
      }

      .cls-3 {
        fill: #3edf0d;
      }
    </style>
  </defs>
  <g id="Capa_1-2" data-name="Capa 1">
    <g>
      <g>
        <g>
          <g>
            <polygon class="cls-3" points="19.43 .02 25.98 0 40.32 20.06 36.89 25.06 19.43 .02"/>
            <polygon class="cls-1" points="9.71 24 19.43 .02 24.94 7.93 14.46 24 9.71 24"/>
          </g>
          <polygon class="cls-2" points="54.4 .03 47.84 .01 33.5 20.07 36.94 25.07 54.4 .03"/>
          <polygon class="cls-3" points="64.12 24.43 54.4 .03 48.88 7.94 59.37 24.43 64.12 24.43"/>
        </g>
        <g>
          <path class="cls-3" d="m63.23,23.11c-5.63,0-10.2,4.57-10.2,10.2s4.57,10.2,10.2,10.2,10.2-4.57,10.2-10.2-4.57-10.2-10.2-10.2Zm-.04,18.96c-4.87,0-8.82-3.95-8.82-8.82s3.95-8.82,8.82-8.82,8.82,3.95,8.82,8.82-3.95,8.82-8.82,8.82Z"/>
          <path class="cls-3" d="m59.37,36.27s1.12,3.08,4.64,3.03c0,0,5.62-.62,4.19-6.33,0,0-1.12,3.79-3.61,4.59,0,0-2.23.89-5.22-1.29Z"/>
        </g>
        <g>
          <path class="cls-1" d="m10.2,22.68c-5.63,0-10.2,4.57-10.2,10.2s4.57,10.2,10.2,10.2,10.2-4.57,10.2-10.2-4.57-10.2-10.2-10.2Zm-.04,18.96c-4.87,0-8.82-3.95-8.82-8.82s3.95-8.82,8.82-8.82,8.82,3.95,8.82,8.82-3.95,8.82-8.82,8.82Z"/>
          <path class="cls-1" d="m5.61,31.96s-1.39,2.96,1.14,5.43c0,0,4.42,3.53,7.44-1.51,0,0-3.47,1.89-5.8.69,0,0-2.21-.95-2.78-4.61Z"/>
        </g>
      </g>
      <g>
        <g>
          <path class="cls-1" d="m298.06,34.7v-3.89h1.45c.29,0,.51.03.66.1s.27.19.36.37c.09.18.14.37.14.59,0,.28-.07.51-.22.7s-.38.31-.69.36c.11.07.2.13.26.19.13.14.25.31.36.52l.57,1.06h-.54l-.43-.81c-.13-.23-.23-.41-.31-.54-.08-.12-.15-.21-.22-.26-.06-.05-.13-.08-.2-.1-.05-.01-.13-.02-.24-.02h-.5v1.73h-.43Zm.43-2.17h.93c.2,0,.35-.02.46-.07.11-.05.2-.13.25-.23.06-.11.09-.22.09-.35,0-.18-.06-.34-.17-.45-.11-.12-.29-.18-.53-.18h-1.03v1.29Z"/>
          <path class="cls-1" d="m299.35,36.47c-2.12,0-3.84-1.72-3.84-3.84s1.72-3.84,3.84-3.84,3.84,1.72,3.84,3.84-1.72,3.84-3.84,3.84Zm0-7.07c-1.78,0-3.23,1.45-3.23,3.23s1.45,3.23,3.23,3.23,3.23-1.45,3.23-3.23-1.45-3.23-3.23-3.23Z"/>
        </g>
        <g>
          <path class="cls-1" d="m119.17,15.68v20.56h-6.65V15.64c0-.48-.17-.89-.52-1.23-.34-.34-.75-.52-1.23-.52h-7.35s0,22.35,0,22.35h-6.61V13.89s-9.06,0-9.06,0v22.35h-6.65V7.28h29.68c2.33,0,4.31.82,5.94,2.46,1.64,1.63,2.46,3.61,2.46,5.94Z"/>
          <path class="cls-1" d="m129.75,29.64h17.26c.53,0,.95-.15,1.25-.44.34-.34.52-.72.52-1.13V7.28h6.61v20.36c0,2.4-.81,4.41-2.44,6.04-1.7,1.71-3.67,2.56-5.94,2.56h-23.88V7.28h6.61v22.37Z"/>
          <path class="cls-1" d="m191.03,15.68v20.56h-6.65V15.64c0-.48-.17-.89-.52-1.23s-.75-.52-1.23-.52h-16.61s0,22.35,0,22.35h-6.65V7.28h23.26c2.33,0,4.31.82,5.94,2.46,1.64,1.63,2.46,3.61,2.46,5.94Z"/>
          <path class="cls-3" d="m225.63,27.71c0,2.41-.8,4.42-2.4,6.02-1.67,1.67-3.63,2.5-5.88,2.5h-22.33v-6.61h21.53c.54,0,1.01-.2,1.41-.6.36-.37.57-.73.64-1.09v-3.08h-23.6v-9.06c0-2.41.8-4.42,2.4-6.02,1.67-1.67,3.63-2.5,5.88-2.5h22.33v6.61h-22.33c-.54,0-1.01.2-1.41.6-.44.45-.66.89-.66,1.31v2.84h24.39l.02,9.08Z"/>
          <path class="cls-3" d="m236.22,36.24h-6.61V7.28h22.48c2.26,0,4.24.85,5.94,2.56,1.63,1.63,2.44,3.64,2.44,6.04v20.36h-6.61v-7.35s-17.64,0-17.64,0v7.35Zm17.64-13.96v-6.83c0-.41-.17-.79-.52-1.13-.3-.29-.72-.44-1.25-.44h-15.87s0,8.4,0,8.4h17.64Z"/>
          <path class="cls-3" d="m293.82,13.89h-22.76v14.18c0,.41.17.79.52,1.13.29.29.71.44,1.25.44h21v6.59h-21c-2.25,0-4.23-.85-5.94-2.56-1.63-1.63-2.44-3.64-2.44-6.04V7.28h29.38v6.61Z"/>
        </g>
      </g>
    </g>
  </g>
</svg>