<?xml version="1.0" encoding="UTF-8"?>
<svg id="Capa_2" data-name="Capa 2" xmlns="http://www.w3.org/2000/svg" viewBox="0 0 22.13 25.52">
  <defs>
    <style>
      .cls-1 {
        fill: #fff;
      }
    </style>
  </defs>
  <g id="Capa_1-2" data-name="Capa 1">
    <path class="cls-1" d="m19.29,2.85c-1.54-1.54-4.04-1.54-5.58,0L3.55,13.01c-2.47,2.48-2.47,6.49,0,8.96,2.48,2.48,6.49,2.48,8.96,0l8.04-8.04c.33-.33.87-.33,1.2,0,.33.33.33.87,0,1.2l-8.04,8.04c-3.14,3.14-8.27,3.14-11.36,0-3.14-3.14-3.14-8.27,0-11.36L12.51,1.65c2.2-2.2,5.77-2.2,7.97,0,2.2,2.2,2.2,5.77,0,7.97l-9.73,9.73c-1.49,1.49-3.95,1.35-5.31-.29-1.08-1.46-.97-3.44.31-4.71L13.78,6.31c.33-.33.87-.33,1.2,0,.33.33.33.87,0,1.2L6.95,15.54c-.71.67-.72,1.72-.18,2.46.69.86,2.02.93,2.79.15l9.73-9.73c1.54-1.54,1.54-4.04,0-5.58h0Z"/>
  </g>
</svg>