<?xml version="1.0" encoding="UTF-8"?>
<svg id="Capa_2" data-name="Capa 2" xmlns="http://www.w3.org/2000/svg" viewBox="0 0 20.57 27.35">
  <g id="Capa_1-2" data-name="Capa 1">
    <path d="m14.57,10.28c0,2.37-1.92,4.28-4.28,4.28s-4.28-1.92-4.28-4.28,1.92-4.28,4.28-4.28,4.28,1.92,4.28,4.28Zm-4.28,2.57c1.42,0,2.57-1.15,2.57-2.57s-1.15-2.57-2.57-2.57-2.57,1.15-2.57,2.57,1.15,2.57,2.57,2.57Zm10.28-2.57c0,4.68-6.27,13.01-9.01,16.45-.66.82-1.88.82-2.54,0C6.22,23.3,0,14.96,0,10.28,0,4.6,4.6,0,10.28,0s10.28,4.6,10.28,10.28h0ZM10.28,1.71C5.55,1.71,1.71,5.55,1.71,10.28c0,.84.29,1.98.89,3.4.58,1.39,1.41,2.89,2.33,4.4,1.82,2.96,3.99,5.79,5.35,7.5,1.36-1.71,3.52-4.54,5.35-7.5.93-1.5,1.75-3.01,2.33-4.4.6-1.41.89-2.56.89-3.4,0-4.73-3.83-8.57-8.57-8.57Z"/>
  </g>
</svg>